<svg width="373" height="44" viewBox="0 0 373 44" fill="none" xmlns="http://www.w3.org/2000/svg">
<path d="M190.9 22.0711C190.794 22.114 184.898 25.0578 184.898 29.5164C184.898 31.1455 185.44 32.4603 186.523 33.3748C187.606 34.318 189.065 34.9039 190.885 34.9039C192.719 34.9039 194.163 34.318 195.246 33.3748C196.329 32.4603 196.871 31.1455 196.871 29.5164C196.901 25.0435 191.02 22.114 190.9 22.0711Z" fill="#008494"/>
<path d="M0 28.1301C0 18.7413 6.69321 12.382 15.9283 12.382C25.1635 12.382 31.8567 18.7413 31.8567 28.1301C31.8567 37.5189 25.1635 43.8781 15.9283 43.8781C6.69321 43.8781 0 37.5046 0 28.1301ZM25.4944 28.1301C25.4944 21.828 21.3581 17.841 15.9434 17.841C10.5287 17.841 6.3924 21.828 6.3924 28.1301C6.3924 34.4179 10.5287 38.4192 15.9434 38.4192C21.3581 38.4192 25.4944 34.4179 25.4944 28.1301Z" fill="#008494"/>
<path d="M67.5787 32.6604C66.5559 37.2047 62.4799 43.8641 52.9138 43.8641C43.6787 43.8641 36.9855 37.5048 36.9855 28.116C36.9855 18.7272 43.6787 12.368 52.9138 12.368C62.4648 12.368 66.5559 19.0845 67.5787 23.2716H61.2014C60.1936 20.5421 57.757 17.8269 52.9138 17.8269C47.4991 17.8269 43.3628 21.8139 43.3628 28.116C43.3628 34.4038 47.4991 38.4051 52.9138 38.4051C58.0127 38.4051 60.4944 35.0755 61.2014 32.6461H67.5787V32.6604Z" fill="#008494"/>
<path d="M130.841 39.9342H130.525C129.894 40.7202 129.127 41.3918 128.224 41.9348C126.705 42.9066 124.283 43.8783 120.959 43.8783C113.95 43.8783 109.483 40.0056 109.483 34.4895C109.483 28.4304 113.619 24.5005 122.554 24.5005H130.525V23.8861C130.525 20.4278 127.607 17.5697 123.968 17.5268C119.41 17.4697 117.47 19.9276 117.139 21.7568H110.762C111.077 16.6694 115.861 12.368 123.832 12.368C132.18 12.368 136.903 16.8409 136.903 23.8718V43.2496H132.165C131.774 43.2496 131.443 42.978 131.368 42.6208L130.841 39.9342ZM130.525 29.3307H122.885C118.041 29.3307 115.876 31.46 115.876 34.1752C115.876 36.9046 117.786 38.7195 121.606 38.7195C127.397 38.7195 130.525 35.6899 130.525 30.5454V29.3307Z" fill="#008494"/>
<path d="M144.874 12.9822H149.943C150.334 12.9822 150.665 13.2395 150.74 13.5967L151.252 16.0118H151.568C152.259 15.3402 153.026 14.74 153.929 14.1969C155.448 13.2823 157.749 12.382 160.803 12.382C168.443 12.382 173.542 17.1693 173.542 25.1005V43.2636H167.165V25.1005C167.165 21.1707 163.916 17.841 159.524 17.841C154.741 17.841 151.237 21.1707 151.237 25.1005V43.2636H144.859V12.9822H144.874Z" fill="#008494"/>
<path d="M238.955 32.6604C237.932 37.2047 233.856 43.8641 224.29 43.8641C215.055 43.8641 208.362 37.5048 208.362 28.116C208.362 18.7272 215.055 12.368 224.29 12.368C233.841 12.368 237.932 19.0845 238.955 23.2716H232.578C231.57 20.5421 229.133 17.8269 224.29 17.8269C218.875 17.8269 214.739 21.8139 214.739 28.116C214.739 34.4038 218.875 38.4051 224.29 38.4051C229.389 38.4051 231.871 35.0755 232.578 32.6461H238.955V32.6604Z" fill="#008494"/>
<path d="M245.799 12.9823H250.567C250.943 12.9823 251.274 13.2253 251.364 13.5825L251.86 15.7118H252.176C253.259 14.5543 254.282 12.9823 258.223 12.9823H263.953V18.427H258.854C254.402 18.427 252.161 20.542 252.161 24.7291V43.2494H245.784V12.9823H245.799Z" fill="#008494"/>
<path d="M327.095 39.634H326.779C325.817 40.8487 323.019 43.8782 316.897 43.8782C308.55 43.8782 302.232 37.8191 302.232 28.1302C302.232 18.4413 308.55 12.3821 316.897 12.3821C323.079 12.3821 325.696 15.4689 326.779 16.6121H327.095V0.878357H333.472V43.2638H328.419C328.028 43.2638 327.682 42.9922 327.621 42.6207L327.095 39.634ZM327.095 28.1302C327.095 21.8281 322.959 17.8411 317.86 17.8411C312.761 17.8411 308.625 21.8281 308.625 28.1302C308.625 34.418 312.761 38.4193 317.86 38.4193C322.944 38.4193 327.095 34.418 327.095 28.1302Z" fill="#008494"/>
<path d="M341.76 0.878357H348.769V7.2376H341.76V0.878357ZM342.076 12.9823H348.454V43.2495H342.076V12.9823Z" fill="#008494"/>
<path d="M359.298 18.7415H354.199V12.9824H359.298V4.50821H365.675V12.9824H373V18.7272H365.675V35.99C365.675 37.2047 366.307 37.8049 367.585 37.8049H373V43.2495H366.307C361.78 43.2495 359.298 40.8345 359.298 36.8903V18.7415Z" fill="#008494"/>
<path d="M88.3054 12.382C79.0703 12.382 72.3771 18.7413 72.3771 28.1301C72.3771 37.5189 79.0703 43.8781 88.3054 43.8781C96.593 43.8781 101.12 38.4335 102.639 34.4893H95.9462C94.9234 36.6043 92.1258 38.7336 88.3054 38.7336C83.2065 38.7336 79.4463 35.4039 78.7544 30.2594H103.286L103.422 29.4162C103.482 28.8589 103.602 28.1444 103.602 27.2298C103.602 18.7413 96.9088 12.382 88.3054 12.382ZM88.3054 17.5266C93.2238 17.5266 96.5779 20.6419 97.4353 25.2006H78.8748C79.9427 20.6419 83.0712 17.5266 88.3054 17.5266Z" fill="#008494"/>
<path d="M281.822 12.382C272.587 12.382 265.894 18.7413 265.894 28.1301C265.894 37.5189 272.587 43.8781 281.822 43.8781C290.109 43.8781 294.637 38.4335 296.156 34.4893H289.463C288.44 36.6043 285.642 38.7336 281.822 38.7336C276.723 38.7336 272.963 35.4039 272.271 30.2594H296.803L296.938 29.4162C296.998 28.8589 297.119 28.1444 297.119 27.2298C297.119 18.7413 290.425 12.382 281.822 12.382ZM281.822 17.5266C286.74 17.5266 290.094 20.6419 290.952 25.2006H272.391C273.459 20.6419 276.588 17.5266 281.822 17.5266Z" fill="#008494"/>
</svg>
