<svg width="150" height="18" viewBox="0 0 150 18" fill="none" xmlns="http://www.w3.org/2000/svg">
<path d="M76.7692 8.4917C76.7269 8.50888 74.3558 9.68845 74.3558 11.475C74.3558 12.1278 74.5736 12.6545 75.0091 13.021C75.4446 13.3989 76.0313 13.6337 76.7632 13.6337C77.5011 13.6337 78.0818 13.3989 78.5173 13.021C78.9528 12.6545 79.1705 12.1278 79.1705 11.475C79.1826 9.68272 76.8176 8.50888 76.7692 8.4917Z" fill="white"/>
<path d="M0 10.9195C0 7.15747 2.69164 4.60938 6.4055 4.60938C10.1194 4.60938 12.811 7.15747 12.811 10.9195C12.811 14.6815 10.1194 17.2296 6.4055 17.2296C2.69164 17.2296 0 14.6758 0 10.9195ZM10.2524 10.9195C10.2524 8.3943 8.58906 6.79673 6.41155 6.79673C4.23404 6.79673 2.57067 8.3943 2.57067 10.9195C2.57067 13.439 4.23404 15.0423 6.41155 15.0423C8.58906 15.0423 10.2524 13.439 10.2524 10.9195Z" fill="white"/>
<path d="M27.1764 12.7348C26.7651 14.5556 25.1259 17.224 21.279 17.224C17.5651 17.224 14.8735 14.6759 14.8735 10.9139C14.8735 7.15185 17.5651 4.60376 21.279 4.60376C25.1199 4.60376 26.7651 7.29501 27.1764 8.97274H24.6118C24.2065 7.87906 23.2267 6.79111 21.279 6.79111C19.1015 6.79111 17.4381 8.38868 17.4381 10.9139C17.4381 13.4333 19.1015 15.0366 21.279 15.0366C23.3295 15.0366 24.3275 13.7025 24.6118 12.729H27.1764V12.7348Z" fill="white"/>
<path d="M52.6171 15.6493H52.4901C52.236 15.9643 51.9275 16.2334 51.5646 16.451C50.9537 16.8403 49.9799 17.2297 48.6431 17.2297C45.8245 17.2297 44.028 15.6779 44.028 13.4677C44.028 11.0398 45.6914 9.46518 49.2843 9.46518H52.4901V9.21896C52.4901 7.83325 51.3166 6.68804 49.8529 6.67087C48.0201 6.64796 47.2398 7.63284 47.1068 8.36578H44.5422C44.6692 6.3273 46.5926 4.60376 49.7984 4.60376C53.1554 4.60376 55.0547 6.39601 55.0547 9.21323V16.9778H53.1494C52.9921 16.9778 52.859 16.869 52.8288 16.7258L52.6171 15.6493ZM52.4901 11.4006H49.4174C47.4697 11.4006 46.5987 12.2538 46.5987 13.3417C46.5987 14.4354 47.3669 15.1626 48.9032 15.1626C51.2319 15.1626 52.4901 13.9487 52.4901 11.8873V11.4006Z" fill="white"/>
<path d="M58.2604 4.84987H60.2988C60.4561 4.84987 60.5892 4.95294 60.6194 5.09609L60.8251 6.06379H60.9521C61.2303 5.79467 61.5388 5.55417 61.9017 5.33658C62.5126 4.97012 63.4381 4.60938 64.6659 4.60938C67.7387 4.60938 69.7891 6.5276 69.7891 9.70557V16.9834H67.2245V9.70557C67.2245 8.1309 65.918 6.79673 64.1518 6.79673C62.2283 6.79673 60.819 8.1309 60.819 9.70557V16.9834H58.2544V4.84987H58.2604Z" fill="white"/>
<path d="M96.0946 12.7348C95.6833 14.5556 94.0441 17.224 90.1971 17.224C86.4833 17.224 83.7916 14.6759 83.7916 10.9139C83.7916 7.15185 86.4833 4.60376 90.1971 4.60376C94.038 4.60376 95.6833 7.29501 96.0946 8.97274H93.53C93.1247 7.87906 92.1448 6.79111 90.1971 6.79111C88.0196 6.79111 86.3563 8.38868 86.3563 10.9139C86.3563 13.4333 88.0196 15.0366 90.1971 15.0366C92.2476 15.0366 93.2457 13.7025 93.53 12.729H96.0946V12.7348Z" fill="white"/>
<path d="M98.8468 4.84985H100.764C100.915 4.84985 101.048 4.9472 101.085 5.09035L101.284 5.94353H101.411C101.847 5.47972 102.258 4.84985 103.843 4.84985H106.147V7.03148H104.097C102.307 7.03148 101.405 7.87894 101.405 9.55667V16.9776H98.8407V4.84985H98.8468Z" fill="white"/>
<path d="M131.54 15.5291H131.412C131.025 16.0158 129.9 17.2297 127.439 17.2297C124.082 17.2297 121.541 14.8019 121.541 10.9196C121.541 7.03733 124.082 4.60948 127.439 4.60948C129.925 4.60948 130.977 5.84631 131.412 6.30439H131.54V0H134.104V16.9835H132.072C131.915 16.9835 131.775 16.8747 131.751 16.7258L131.54 15.5291ZM131.54 10.9196C131.54 8.3944 129.876 6.79683 127.826 6.79683C125.775 6.79683 124.112 8.3944 124.112 10.9196C124.112 13.4391 125.775 15.0424 127.826 15.0424C129.87 15.0424 131.54 13.4391 131.54 10.9196Z" fill="white"/>
<path d="M137.437 0H140.256V2.5481H137.437V0ZM137.564 4.84997H140.129V16.9778H137.564V4.84997Z" fill="white"/>
<path d="M144.49 7.1575H142.439V4.8499H144.49V1.45435H147.054V4.8499H150V7.15177H147.054V14.0689C147.054 14.5556 147.308 14.7961 147.822 14.7961H150V16.9777H147.308C145.488 16.9777 144.49 16.01 144.49 14.4296V7.1575Z" fill="white"/>
<path d="M35.5115 4.60938C31.7977 4.60938 29.106 7.15747 29.106 10.9195C29.106 14.6815 31.7977 17.2296 35.5115 17.2296C38.8443 17.2296 40.665 15.048 41.2759 13.4676H38.5842C38.1729 14.315 37.0479 15.1682 35.5115 15.1682C33.461 15.1682 31.9489 13.8341 31.6707 11.7727H41.536L41.5904 11.4348C41.6146 11.2115 41.663 10.9252 41.663 10.5587C41.663 7.15747 38.9713 4.60938 35.5115 4.60938ZM35.5115 6.67076C37.4894 6.67076 38.8383 7.91904 39.183 9.74565H31.719C32.1485 7.91904 33.4066 6.67076 35.5115 6.67076Z" fill="white"/>
<path d="M113.333 4.60938C109.619 4.60938 106.928 7.15747 106.928 10.9195C106.928 14.6815 109.619 17.2296 113.333 17.2296C116.666 17.2296 118.487 15.048 119.098 13.4676H116.406C115.995 14.315 114.87 15.1682 113.333 15.1682C111.283 15.1682 109.771 13.8341 109.492 11.7727H119.358L119.412 11.4348C119.436 11.2115 119.485 10.9252 119.485 10.5587C119.485 7.15747 116.793 4.60938 113.333 4.60938ZM113.333 6.67076C115.311 6.67076 116.66 7.91904 117.005 9.74565H109.541C109.97 7.91904 111.228 6.67076 113.333 6.67076Z" fill="white"/>
</svg>
